<?xml version="1.0" encoding="UTF-8" standalone="no"?>
<!-- Created with Inkscape (http://www.inkscape.org/) -->

<svg
   width="1999.9999"
   height="2000.0001"
   viewBox="0 0 529.16662 529.16669"
   version="1.1"
   id="svg5"
   inkscape:version="1.2.2 (b0a8486541, 2022-12-01)"
   sodipodi:docname="drawing.svg"
   inkscape:export-filename="black Logo circle.png"
   inkscape:export-xdpi="300"
   inkscape:export-ydpi="300"
   xmlns:inkscape="http://www.inkscape.org/namespaces/inkscape"
   xmlns:sodipodi="http://sodipodi.sourceforge.net/DTD/sodipodi-0.dtd"
   xmlns="http://www.w3.org/2000/svg"
   xmlns:svg="http://www.w3.org/2000/svg">
  <sodipodi:namedview
     id="namedview7"
     pagecolor="#ffffff"
     bordercolor="#000000"
     borderopacity="0.25"
     inkscape:showpageshadow="2"
     inkscape:pageopacity="0.0"
     inkscape:pagecheckerboard="0"
     inkscape:deskcolor="#d1d1d1"
     inkscape:document-units="px"
     showgrid="false"
     inkscape:zoom="0.245"
     inkscape:cx="997.95918"
     inkscape:cy="1000"
     inkscape:window-width="1366"
     inkscape:window-height="699"
     inkscape:window-x="0"
     inkscape:window-y="0"
     inkscape:window-maximized="1"
     inkscape:current-layer="layer1">
    <inkscape:grid
       type="xygrid"
       id="grid426"
       originx="0"
       originy="0" />
  </sodipodi:namedview>
  <defs
     id="defs2" />
  <rect
     style="font-size:35.2778px;display:none;fill:#ffffff;stroke-width:0.0700042"
     id="rect254"
     width="529.16669"
     height="529.16669"
     x="-1.6005859e-05"
     y="-1.6005859e-05" />
  <g
     inkscape:label="Layer 1"
     inkscape:groupmode="layer"
     id="layer1">
    <ellipse
       style="display:none;fill:#000000;stroke-width:0.38875"
       id="path244"
       cx="266.47083"
       cy="264.58331"
       rx="266.47083"
       ry="264.58331" />
    <g
       id="g190"
       transform="matrix(8.035709,0,0,8.035709,-577.27863,-928.71946)"
       style="font-size:35.2778px;display:inline;fill:#ffffff;stroke-width:0.264583">
      <path
         d="m 92.604167,140.56249 h 12.347263 v -4.40972 H 92.604167 c -6.808616,0 -12.347231,5.53861 -12.347231,12.34723 0,6.80861 5.538615,12.34723 12.347231,12.34723 H 104.95143 V 156.4375 H 92.604167 c -4.37445,0 -7.937506,-3.56306 -7.937506,-7.9375 0,-4.37445 3.563056,-7.93751 7.937506,-7.93751 z"
         style="font-family:Azonix;-inkscape-font-specification:Azonix;fill:#ffffff"
         id="path277" />
      <path
         d="m 116.41667,140.56249 h -12.34726 v -4.40972 h 12.34726 c 6.80862,0 12.34723,5.53861 12.34723,12.34723 0,6.80861 -5.53861,12.34723 -12.34723,12.34723 h -12.34726 v -4.40973 h 12.34726 c 4.37445,0 7.93751,-3.56306 7.93751,-7.9375 0,-4.37445 -3.56306,-7.93751 -7.93751,-7.93751 z"
         style="font-size:35.2778px;font-family:Azonix;-inkscape-font-specification:Azonix;display:inline;fill:#ffffff;stroke-width:0.264583"
         id="path277-4" />
      <path
         d="m 105,136.15277 c -6.80861,0 -12.34723,5.53861 -12.34723,12.34723 0,6.80861 5.53862,12.34723 12.34723,12.34723 6.80862,0 12.34723,-5.53862 12.34723,-12.34723 0,-6.80862 -5.53861,-12.34723 -12.34723,-12.34723 z m 0,20.28473 c -4.37444,0 -7.9375,-3.56306 -7.9375,-7.9375 0,-4.37445 3.56306,-7.93751 7.9375,-7.93751 4.37445,0 7.93751,3.56306 7.93751,7.93751 0,4.37444 -3.56306,7.9375 -7.93751,7.9375 z"
         style="font-family:Azonix;-inkscape-font-specification:Azonix;display:inline;fill:#ffffff"
         id="path285" />
      <path
         id="path277-1"
         style="font-size:35.2778px;font-family:Azonix;-inkscape-font-specification:Azonix;display:inline;fill:#ffffff;stroke-width:0.331009"
         d="m 107.20477,138.90625 h -4.40954 v 19.1875 h 4.40954 z" />
    </g>
    <g
       id="g520"
       transform="matrix(8.035709,0,0,8.035709,-580.27225,-928.7193)"
       style="font-size:35.2778px;display:inline;fill:#0000ff;stroke-width:0.264583"
       class="UnoptimicedTransforms">
      <path
         id="path1286"
         style="font-size:35.2778px;font-family:Azonix;-inkscape-font-specification:Azonix;display:inline;fill:#0000ff;stroke-width:0.264583"
         d="m 129.64583,136.15293 h -0.0884 c -6.80862,0 -12.34705,5.53844 -12.34705,12.34705 0,6.8086 5.53843,12.34705 12.34705,12.34705 h 0.0884 v -4.40955 h -0.0884 c -4.37445,0 -7.9375,-3.56306 -7.9375,-7.9375 0,-4.37445 3.56305,-7.9375 7.9375,-7.9375 h 0.0884 z" />
      <path
         id="path1283"
         style="font-size:35.2778px;font-family:Azonix;-inkscape-font-specification:Azonix;display:inline;fill:#0000ff;stroke-width:0.2539"
         d="m 118.35659,146.29523 v 4.40954 h 11.28924 v -4.40954 z" />
    </g>
  </g>
</svg>
